<svg xmlns="http://www.w3.org/2000/svg" version="1.1" xmlns:xlink="http://www.w3.org/1999/xlink" xmlns:svgjs="http://svgjs.dev/svgjs"><rect width="5590" height="930" x="0" y="185" fill="#84545f"></rect><rect width="1200" height="930" x="2710" y="185" fill="#84545f"></rect><rect width="5560" height="930" x="15" y="200" stroke-width="30" stroke="black" fill="none"></rect><svg width="580" height="915" viewBox="0 0 580 915" fill="none">
<rect width="520" height="700" transform="matrix(1 0 0 -1 30 900)" fill="#617984"></rect>
<path d="M71 200H15V900H257" stroke="black" stroke-width="30"></path>
<path d="M358 900H565V200H502" stroke="black" stroke-width="30"></path>
<path d="M366 699V596H564.5" stroke="black" stroke-width="15"></path>
<path d="M365 798L365 900" stroke="black" stroke-width="15"></path>
<path d="M15 791L252 791" stroke="black" stroke-width="15"></path>
<path d="M250 695V900" stroke="black" stroke-width="15"></path>
<path d="M267.964 802C318.746 802 355.09 845.5 355.09 893" stroke="black" stroke-dasharray="2 2"></path>
<rect x="261" y="803.5" width="5.96159" height="89" stroke="black" stroke-width="3"></rect>
<path d="M268.964 609C319.746 609 356.09 652.5 356.09 700" stroke="black" stroke-dasharray="2 2"></path>
<rect x="262" y="610.5" width="5.96159" height="89" stroke="black" stroke-width="3"></rect>
<path d="M455.107 710.5C455.107 761.5 411.793 798 364.496 798" stroke="black" stroke-dasharray="2 2"></path>
<rect x="453.607" y="703.5" width="6" height="88.6074" transform="rotate(90 453.607 703.5)" stroke="black" stroke-width="3"></rect>
<path d="M321 -1.08197e-05L321 200L71 200L71 -1.08194e-07L321 -1.08197e-05Z" fill="#92A8B2"></path>
<path d="M321 -1.08197e-05L321 200L71 200L71 -1.08194e-07L321 -1.08197e-05Z" stroke="black"></path>
</svg><svg width="580" height="915" viewBox="0 0 580 915" fill="none" x="550" y="0">
<rect width="520" height="700" transform="matrix(1 0 0 -1 30 900)" fill="#617984"></rect>
<path d="M71 200H15V900H257" stroke="black" stroke-width="30"></path>
<path d="M358 900H565V200H502" stroke="black" stroke-width="30"></path>
<path d="M366 699V596H564.5" stroke="black" stroke-width="15"></path>
<path d="M365 798L365 900" stroke="black" stroke-width="15"></path>
<path d="M15 791L252 791" stroke="black" stroke-width="15"></path>
<path d="M250 695V900" stroke="black" stroke-width="15"></path>
<path d="M267.964 802C318.746 802 355.09 845.5 355.09 893" stroke="black" stroke-dasharray="2 2"></path>
<rect x="261" y="803.5" width="5.96159" height="89" stroke="black" stroke-width="3"></rect>
<path d="M268.964 609C319.746 609 356.09 652.5 356.09 700" stroke="black" stroke-dasharray="2 2"></path>
<rect x="262" y="610.5" width="5.96159" height="89" stroke="black" stroke-width="3"></rect>
<path d="M455.107 710.5C455.107 761.5 411.793 798 364.496 798" stroke="black" stroke-dasharray="2 2"></path>
<rect x="453.607" y="703.5" width="6" height="88.6074" transform="rotate(90 453.607 703.5)" stroke="black" stroke-width="3"></rect>
<path d="M321 -1.08197e-05L321 200L71 200L71 -1.08194e-07L321 -1.08197e-05Z" fill="#92A8B2"></path>
<path d="M321 -1.08197e-05L321 200L71 200L71 -1.08194e-07L321 -1.08197e-05Z" stroke="black"></path>
</svg><svg width="580" height="915" viewBox="0 0 580 915" fill="none" x="1100" y="0">
<rect width="520" height="700" transform="matrix(1 0 0 -1 30 900)" fill="#617984"></rect>
<path d="M71 200H15V900H257" stroke="black" stroke-width="30"></path>
<path d="M358 900H565V200H502" stroke="black" stroke-width="30"></path>
<path d="M366 699V596H564.5" stroke="black" stroke-width="15"></path>
<path d="M365 798L365 900" stroke="black" stroke-width="15"></path>
<path d="M15 791L252 791" stroke="black" stroke-width="15"></path>
<path d="M250 695V900" stroke="black" stroke-width="15"></path>
<path d="M267.964 802C318.746 802 355.09 845.5 355.09 893" stroke="black" stroke-dasharray="2 2"></path>
<rect x="261" y="803.5" width="5.96159" height="89" stroke="black" stroke-width="3"></rect>
<path d="M268.964 609C319.746 609 356.09 652.5 356.09 700" stroke="black" stroke-dasharray="2 2"></path>
<rect x="262" y="610.5" width="5.96159" height="89" stroke="black" stroke-width="3"></rect>
<path d="M455.107 710.5C455.107 761.5 411.793 798 364.496 798" stroke="black" stroke-dasharray="2 2"></path>
<rect x="453.607" y="703.5" width="6" height="88.6074" transform="rotate(90 453.607 703.5)" stroke="black" stroke-width="3"></rect>
<path d="M321 -1.08197e-05L321 200L71 200L71 -1.08194e-07L321 -1.08197e-05Z" fill="#92A8B2"></path>
<path d="M321 -1.08197e-05L321 200L71 200L71 -1.08194e-07L321 -1.08197e-05Z" stroke="black"></path>
</svg><svg width="1060" height="915" viewBox="0 0 1060 915" fill="none" x="1650" y="0">
<rect width="1000" height="700" transform="matrix(1 0 0 -1 30 900)" fill="#AC6411"></rect>
<path d="M762 900L15 900C15 900 15 473.367 15 200L75.5119 200" stroke="black" stroke-width="30"></path>
<path d="M403 200H448.5H494" stroke="black" stroke-width="30"></path>
<path d="M698 200H743.5H789" stroke="black" stroke-width="30"></path>
<path d="M865 900H1045V200H984.695" stroke="black" stroke-width="30"></path>
<path d="M447 900L447 719L648 719" stroke="black" stroke-width="15"></path>
<path d="M754 713L754 900" stroke="black" stroke-width="15"></path>
<path d="M947 608L947 900" stroke="black" stroke-width="15"></path>
<path d="M773.5 808C824.5 808 861 851.5 861 899" stroke="black" stroke-dasharray="2 2"></path>
<rect x="766.5" y="809.5" width="6" height="89" stroke="black" stroke-width="3"></rect>
<path d="M355 701.5C355 650.5 398.5 614 446 614" stroke="black" stroke-dasharray="2 2"></path>
<rect x="356.5" y="708.5" width="6" height="89" transform="rotate(-90 356.5 708.5)" stroke="black" stroke-width="3"></rect>
<path d="M543.5 520C492.5 520 456 563.5 456 611" stroke="black" stroke-dasharray="2 2"></path>
<rect x="-1.5" y="1.5" width="6" height="89" transform="matrix(-1 0 0 1 549 520)" stroke="black" stroke-width="3"></rect>
<path d="M841.5 520C790.5 520 754 563.5 754 611" stroke="black" stroke-dasharray="2 2"></path>
<rect x="-1.5" y="1.5" width="6" height="89" transform="matrix(-1 0 0 1 847 520)" stroke="black" stroke-width="3"></rect>
<path d="M659.5 810C710.5 810 747 766.5 747 719" stroke="black" stroke-dasharray="2 2"></path>
<rect x="1.5" y="-1.5" width="6" height="89" transform="matrix(1 8.74228e-08 8.74228e-08 -1 651 807)" stroke="black" stroke-width="3"></rect>
<path d="M447 613.5L447 200" stroke="black" stroke-width="15"></path>
<path d="M744 200L744 609L557 609" stroke="black" stroke-width="15"></path>
<path d="M853 608L1041 608" stroke="black" stroke-width="15"></path>
<rect x="389" width="200" height="300" transform="rotate(90 389 0)" fill="#CD934D"></rect>
</svg><svg width="580" height="915" viewBox="0 0 580 915" fill="none" x="3910" y="0">
<rect width="520" height="700" transform="matrix(1 0 0 -1 30 900)" fill="#617984"></rect>
<path d="M71 200H15V900H257" stroke="black" stroke-width="30"></path>
<path d="M358 900H565V200H502" stroke="black" stroke-width="30"></path>
<path d="M366 699V596H564.5" stroke="black" stroke-width="15"></path>
<path d="M365 798L365 900" stroke="black" stroke-width="15"></path>
<path d="M15 791L252 791" stroke="black" stroke-width="15"></path>
<path d="M250 695V900" stroke="black" stroke-width="15"></path>
<path d="M267.964 802C318.746 802 355.09 845.5 355.09 893" stroke="black" stroke-dasharray="2 2"></path>
<rect x="261" y="803.5" width="5.96159" height="89" stroke="black" stroke-width="3"></rect>
<path d="M268.964 609C319.746 609 356.09 652.5 356.09 700" stroke="black" stroke-dasharray="2 2"></path>
<rect x="262" y="610.5" width="5.96159" height="89" stroke="black" stroke-width="3"></rect>
<path d="M455.107 710.5C455.107 761.5 411.793 798 364.496 798" stroke="black" stroke-dasharray="2 2"></path>
<rect x="453.607" y="703.5" width="6" height="88.6074" transform="rotate(90 453.607 703.5)" stroke="black" stroke-width="3"></rect>
<path d="M321 -1.08197e-05L321 200L71 200L71 -1.08194e-07L321 -1.08197e-05Z" fill="#92A8B2"></path>
<path d="M321 -1.08197e-05L321 200L71 200L71 -1.08194e-07L321 -1.08197e-05Z" stroke="black"></path>
</svg><svg width="580" height="915" viewBox="0 0 580 915" fill="none" x="4460" y="0">
<rect width="520" height="700" transform="matrix(1 0 0 -1 30 900)" fill="#617984"></rect>
<path d="M71 200H15V900H257" stroke="black" stroke-width="30"></path>
<path d="M358 900H565V200H502" stroke="black" stroke-width="30"></path>
<path d="M366 699V596H564.5" stroke="black" stroke-width="15"></path>
<path d="M365 798L365 900" stroke="black" stroke-width="15"></path>
<path d="M15 791L252 791" stroke="black" stroke-width="15"></path>
<path d="M250 695V900" stroke="black" stroke-width="15"></path>
<path d="M267.964 802C318.746 802 355.09 845.5 355.09 893" stroke="black" stroke-dasharray="2 2"></path>
<rect x="261" y="803.5" width="5.96159" height="89" stroke="black" stroke-width="3"></rect>
<path d="M268.964 609C319.746 609 356.09 652.5 356.09 700" stroke="black" stroke-dasharray="2 2"></path>
<rect x="262" y="610.5" width="5.96159" height="89" stroke="black" stroke-width="3"></rect>
<path d="M455.107 710.5C455.107 761.5 411.793 798 364.496 798" stroke="black" stroke-dasharray="2 2"></path>
<rect x="453.607" y="703.5" width="6" height="88.6074" transform="rotate(90 453.607 703.5)" stroke="black" stroke-width="3"></rect>
<path d="M321 -1.08197e-05L321 200L71 200L71 -1.08194e-07L321 -1.08197e-05Z" fill="#92A8B2"></path>
<path d="M321 -1.08197e-05L321 200L71 200L71 -1.08194e-07L321 -1.08197e-05Z" stroke="black"></path>
</svg><svg width="580" height="915" viewBox="0 0 580 915" fill="none" x="5010" y="0">
<rect width="520" height="700" transform="matrix(1 0 0 -1 30 900)" fill="#617984"></rect>
<path d="M71 200H15V900H257" stroke="black" stroke-width="30"></path>
<path d="M358 900H565V200H502" stroke="black" stroke-width="30"></path>
<path d="M366 699V596H564.5" stroke="black" stroke-width="15"></path>
<path d="M365 798L365 900" stroke="black" stroke-width="15"></path>
<path d="M15 791L252 791" stroke="black" stroke-width="15"></path>
<path d="M250 695V900" stroke="black" stroke-width="15"></path>
<path d="M267.964 802C318.746 802 355.09 845.5 355.09 893" stroke="black" stroke-dasharray="2 2"></path>
<rect x="261" y="803.5" width="5.96159" height="89" stroke="black" stroke-width="3"></rect>
<path d="M268.964 609C319.746 609 356.09 652.5 356.09 700" stroke="black" stroke-dasharray="2 2"></path>
<rect x="262" y="610.5" width="5.96159" height="89" stroke="black" stroke-width="3"></rect>
<path d="M455.107 710.5C455.107 761.5 411.793 798 364.496 798" stroke="black" stroke-dasharray="2 2"></path>
<rect x="453.607" y="703.5" width="6" height="88.6074" transform="rotate(90 453.607 703.5)" stroke="black" stroke-width="3"></rect>
<path d="M321 -1.08197e-05L321 200L71 200L71 -1.08194e-07L321 -1.08197e-05Z" fill="#92A8B2"></path>
<path d="M321 -1.08197e-05L321 200L71 200L71 -1.08194e-07L321 -1.08197e-05Z" stroke="black"></path>
</svg></svg>