<svg xmlns="http://www.w3.org/2000/svg" version="1.1" xmlns:xlink="http://www.w3.org/1999/xlink" xmlns:svgjs="http://svgjs.dev/svgjs"><g><rect width="3460" height="930" x="0" y="185" fill="#84545f"></rect><rect width="3430" height="930" x="15" y="200" stroke-width="30" stroke="black" fill="none"></rect><svg width="580" height="915" viewBox="0 0 580 915" fill="none">
<rect width="520" height="700" transform="matrix(1 0 0 -1 30 900)" fill="#92A8B2"></rect>
<path d="M71 200H15V900H257" stroke="black" stroke-width="30"></path>
<path d="M358 900H565V200H502" stroke="black" stroke-width="30"></path>
<path d="M366 699V596H564.5" stroke="black" stroke-width="15"></path>
<path d="M365 798L365 900" stroke="black" stroke-width="15"></path>
<path d="M15 791L252 791" stroke="black" stroke-width="15"></path>
<path d="M250 695V900" stroke="black" stroke-width="15"></path>
<path d="M267.964 802C318.746 802 355.09 845.5 355.09 893" stroke="black" stroke-dasharray="2 2"></path>
<rect x="261" y="803.5" width="5.96159" height="89" stroke="black" stroke-width="3"></rect>
<path d="M268.964 609C319.746 609 356.09 652.5 356.09 700" stroke="black" stroke-dasharray="2 2"></path>
<rect x="262" y="610.5" width="5.96159" height="89" stroke="black" stroke-width="3"></rect>
<path d="M455.107 710.5C455.107 761.5 411.793 798 364.496 798" stroke="black" stroke-dasharray="2 2"></path>
<rect x="453.607" y="703.5" width="6" height="88.6074" transform="rotate(90 453.607 703.5)" stroke="black" stroke-width="3"></rect>
<path d="M321 -1.08197e-05L321 200L71 200L71 -1.08194e-07L321 -1.08197e-05Z" fill="#A9BCC4"></path>
<path d="M321 -1.08197e-05L321 200L71 200L71 -1.08194e-07L321 -1.08197e-05Z" stroke="black"></path>
</svg><svg width="580" height="915" viewBox="0 0 580 915" fill="none" x="550" y="0">
<rect width="520" height="700" transform="matrix(1 0 0 -1 30 900)" fill="#92A8B2"></rect>
<path d="M71 200H15V900H257" stroke="black" stroke-width="30"></path>
<path d="M358 900H565V200H502" stroke="black" stroke-width="30"></path>
<path d="M366 699V596H564.5" stroke="black" stroke-width="15"></path>
<path d="M365 798L365 900" stroke="black" stroke-width="15"></path>
<path d="M15 791L252 791" stroke="black" stroke-width="15"></path>
<path d="M250 695V900" stroke="black" stroke-width="15"></path>
<path d="M267.964 802C318.746 802 355.09 845.5 355.09 893" stroke="black" stroke-dasharray="2 2"></path>
<rect x="261" y="803.5" width="5.96159" height="89" stroke="black" stroke-width="3"></rect>
<path d="M268.964 609C319.746 609 356.09 652.5 356.09 700" stroke="black" stroke-dasharray="2 2"></path>
<rect x="262" y="610.5" width="5.96159" height="89" stroke="black" stroke-width="3"></rect>
<path d="M455.107 710.5C455.107 761.5 411.793 798 364.496 798" stroke="black" stroke-dasharray="2 2"></path>
<rect x="453.607" y="703.5" width="6" height="88.6074" transform="rotate(90 453.607 703.5)" stroke="black" stroke-width="3"></rect>
<path d="M321 -1.08197e-05L321 200L71 200L71 -1.08194e-07L321 -1.08197e-05Z" fill="#A9BCC4"></path>
<path d="M321 -1.08197e-05L321 200L71 200L71 -1.08194e-07L321 -1.08197e-05Z" stroke="black"></path>
</svg><rect width="1200" height="900" x="1130" y="215" fill="#84545f"></rect><svg width="580" height="915" viewBox="0 0 580 915" fill="none" x="2330" y="0">
<rect width="520" height="700" transform="matrix(1 0 0 -1 30 900)" fill="#92A8B2"></rect>
<path d="M71 200H15V900H257" stroke="black" stroke-width="30"></path>
<path d="M358 900H565V200H502" stroke="black" stroke-width="30"></path>
<path d="M366 699V596H564.5" stroke="black" stroke-width="15"></path>
<path d="M365 798L365 900" stroke="black" stroke-width="15"></path>
<path d="M15 791L252 791" stroke="black" stroke-width="15"></path>
<path d="M250 695V900" stroke="black" stroke-width="15"></path>
<path d="M267.964 802C318.746 802 355.09 845.5 355.09 893" stroke="black" stroke-dasharray="2 2"></path>
<rect x="261" y="803.5" width="5.96159" height="89" stroke="black" stroke-width="3"></rect>
<path d="M268.964 609C319.746 609 356.09 652.5 356.09 700" stroke="black" stroke-dasharray="2 2"></path>
<rect x="262" y="610.5" width="5.96159" height="89" stroke="black" stroke-width="3"></rect>
<path d="M455.107 710.5C455.107 761.5 411.793 798 364.496 798" stroke="black" stroke-dasharray="2 2"></path>
<rect x="453.607" y="703.5" width="6" height="88.6074" transform="rotate(90 453.607 703.5)" stroke="black" stroke-width="3"></rect>
<path d="M321 -1.08197e-05L321 200L71 200L71 -1.08194e-07L321 -1.08197e-05Z" fill="#A9BCC4"></path>
<path d="M321 -1.08197e-05L321 200L71 200L71 -1.08194e-07L321 -1.08197e-05Z" stroke="black"></path>
</svg><svg width="580" height="915" viewBox="0 0 580 915" fill="none" x="2880" y="0">
<rect width="520" height="700" transform="matrix(1 0 0 -1 30 900)" fill="#92A8B2"></rect>
<path d="M71 200H15V900H257" stroke="black" stroke-width="30"></path>
<path d="M358 900H565V200H502" stroke="black" stroke-width="30"></path>
<path d="M366 699V596H564.5" stroke="black" stroke-width="15"></path>
<path d="M365 798L365 900" stroke="black" stroke-width="15"></path>
<path d="M15 791L252 791" stroke="black" stroke-width="15"></path>
<path d="M250 695V900" stroke="black" stroke-width="15"></path>
<path d="M267.964 802C318.746 802 355.09 845.5 355.09 893" stroke="black" stroke-dasharray="2 2"></path>
<rect x="261" y="803.5" width="5.96159" height="89" stroke="black" stroke-width="3"></rect>
<path d="M268.964 609C319.746 609 356.09 652.5 356.09 700" stroke="black" stroke-dasharray="2 2"></path>
<rect x="262" y="610.5" width="5.96159" height="89" stroke="black" stroke-width="3"></rect>
<path d="M455.107 710.5C455.107 761.5 411.793 798 364.496 798" stroke="black" stroke-dasharray="2 2"></path>
<rect x="453.607" y="703.5" width="6" height="88.6074" transform="rotate(90 453.607 703.5)" stroke="black" stroke-width="3"></rect>
<path d="M321 -1.08197e-05L321 200L71 200L71 -1.08194e-07L321 -1.08197e-05Z" fill="#A9BCC4"></path>
<path d="M321 -1.08197e-05L321 200L71 200L71 -1.08194e-07L321 -1.08197e-05Z" stroke="black"></path>
</svg></g><g transform="matrix(-1,1.2246467991473532e-16,-1.2246467991473532e-16,-1,3120,2030)"><rect width="2780" height="730" x="0" y="185" fill="#84545f"></rect><line x1="0" y1="200" x2="2780" y2="200" stroke-width="30" stroke="black"></line><svg width="580" height="915" viewBox="0 0 580 915" fill="none" x="0" y="0">
<rect width="520" height="700" transform="matrix(1 0 0 -1 30 900)" fill="#92A8B2"></rect>
<path d="M71 200H15V900H257" stroke="black" stroke-width="30"></path>
<path d="M358 900H565V200H502" stroke="black" stroke-width="30"></path>
<path d="M366 699V596H564.5" stroke="black" stroke-width="15"></path>
<path d="M365 798L365 900" stroke="black" stroke-width="15"></path>
<path d="M15 791L252 791" stroke="black" stroke-width="15"></path>
<path d="M250 695V900" stroke="black" stroke-width="15"></path>
<path d="M267.964 802C318.746 802 355.09 845.5 355.09 893" stroke="black" stroke-dasharray="2 2"></path>
<rect x="261" y="803.5" width="5.96159" height="89" stroke="black" stroke-width="3"></rect>
<path d="M268.964 609C319.746 609 356.09 652.5 356.09 700" stroke="black" stroke-dasharray="2 2"></path>
<rect x="262" y="610.5" width="5.96159" height="89" stroke="black" stroke-width="3"></rect>
<path d="M455.107 710.5C455.107 761.5 411.793 798 364.496 798" stroke="black" stroke-dasharray="2 2"></path>
<rect x="453.607" y="703.5" width="6" height="88.6074" transform="rotate(90 453.607 703.5)" stroke="black" stroke-width="3"></rect>
<path d="M321 -1.08197e-05L321 200L71 200L71 -1.08194e-07L321 -1.08197e-05Z" fill="#A9BCC4"></path>
<path d="M321 -1.08197e-05L321 200L71 200L71 -1.08194e-07L321 -1.08197e-05Z" stroke="black"></path>
</svg><svg width="580" height="915" viewBox="0 0 580 915" fill="none" x="550" y="0">
<rect width="520" height="700" transform="matrix(1 0 0 -1 30 900)" fill="#92A8B2"></rect>
<path d="M71 200H15V900H257" stroke="black" stroke-width="30"></path>
<path d="M358 900H565V200H502" stroke="black" stroke-width="30"></path>
<path d="M366 699V596H564.5" stroke="black" stroke-width="15"></path>
<path d="M365 798L365 900" stroke="black" stroke-width="15"></path>
<path d="M15 791L252 791" stroke="black" stroke-width="15"></path>
<path d="M250 695V900" stroke="black" stroke-width="15"></path>
<path d="M267.964 802C318.746 802 355.09 845.5 355.09 893" stroke="black" stroke-dasharray="2 2"></path>
<rect x="261" y="803.5" width="5.96159" height="89" stroke="black" stroke-width="3"></rect>
<path d="M268.964 609C319.746 609 356.09 652.5 356.09 700" stroke="black" stroke-dasharray="2 2"></path>
<rect x="262" y="610.5" width="5.96159" height="89" stroke="black" stroke-width="3"></rect>
<path d="M455.107 710.5C455.107 761.5 411.793 798 364.496 798" stroke="black" stroke-dasharray="2 2"></path>
<rect x="453.607" y="703.5" width="6" height="88.6074" transform="rotate(90 453.607 703.5)" stroke="black" stroke-width="3"></rect>
<path d="M321 -1.08197e-05L321 200L71 200L71 -1.08194e-07L321 -1.08197e-05Z" fill="#A9BCC4"></path>
<path d="M321 -1.08197e-05L321 200L71 200L71 -1.08194e-07L321 -1.08197e-05Z" stroke="black"></path>
</svg><svg width="580" height="915" viewBox="0 0 580 915" fill="none" x="1100" y="0">
<rect width="520" height="700" transform="matrix(1 0 0 -1 30 900)" fill="#92A8B2"></rect>
<path d="M71 200H15V900H257" stroke="black" stroke-width="30"></path>
<path d="M358 900H565V200H502" stroke="black" stroke-width="30"></path>
<path d="M366 699V596H564.5" stroke="black" stroke-width="15"></path>
<path d="M365 798L365 900" stroke="black" stroke-width="15"></path>
<path d="M15 791L252 791" stroke="black" stroke-width="15"></path>
<path d="M250 695V900" stroke="black" stroke-width="15"></path>
<path d="M267.964 802C318.746 802 355.09 845.5 355.09 893" stroke="black" stroke-dasharray="2 2"></path>
<rect x="261" y="803.5" width="5.96159" height="89" stroke="black" stroke-width="3"></rect>
<path d="M268.964 609C319.746 609 356.09 652.5 356.09 700" stroke="black" stroke-dasharray="2 2"></path>
<rect x="262" y="610.5" width="5.96159" height="89" stroke="black" stroke-width="3"></rect>
<path d="M455.107 710.5C455.107 761.5 411.793 798 364.496 798" stroke="black" stroke-dasharray="2 2"></path>
<rect x="453.607" y="703.5" width="6" height="88.6074" transform="rotate(90 453.607 703.5)" stroke="black" stroke-width="3"></rect>
<path d="M321 -1.08197e-05L321 200L71 200L71 -1.08194e-07L321 -1.08197e-05Z" fill="#A9BCC4"></path>
<path d="M321 -1.08197e-05L321 200L71 200L71 -1.08194e-07L321 -1.08197e-05Z" stroke="black"></path>
</svg><svg width="580" height="915" viewBox="0 0 580 915" fill="none" x="1650" y="0">
<rect width="520" height="700" transform="matrix(1 0 0 -1 30 900)" fill="#92A8B2"></rect>
<path d="M71 200H15V900H257" stroke="black" stroke-width="30"></path>
<path d="M358 900H565V200H502" stroke="black" stroke-width="30"></path>
<path d="M366 699V596H564.5" stroke="black" stroke-width="15"></path>
<path d="M365 798L365 900" stroke="black" stroke-width="15"></path>
<path d="M15 791L252 791" stroke="black" stroke-width="15"></path>
<path d="M250 695V900" stroke="black" stroke-width="15"></path>
<path d="M267.964 802C318.746 802 355.09 845.5 355.09 893" stroke="black" stroke-dasharray="2 2"></path>
<rect x="261" y="803.5" width="5.96159" height="89" stroke="black" stroke-width="3"></rect>
<path d="M268.964 609C319.746 609 356.09 652.5 356.09 700" stroke="black" stroke-dasharray="2 2"></path>
<rect x="262" y="610.5" width="5.96159" height="89" stroke="black" stroke-width="3"></rect>
<path d="M455.107 710.5C455.107 761.5 411.793 798 364.496 798" stroke="black" stroke-dasharray="2 2"></path>
<rect x="453.607" y="703.5" width="6" height="88.6074" transform="rotate(90 453.607 703.5)" stroke="black" stroke-width="3"></rect>
<path d="M321 -1.08197e-05L321 200L71 200L71 -1.08194e-07L321 -1.08197e-05Z" fill="#A9BCC4"></path>
<path d="M321 -1.08197e-05L321 200L71 200L71 -1.08194e-07L321 -1.08197e-05Z" stroke="black"></path>
</svg><svg width="580" height="915" viewBox="0 0 580 915" fill="none" x="2200" y="0">
<rect width="520" height="700" transform="matrix(1 0 0 -1 30 900)" fill="#92A8B2"></rect>
<path d="M71 200H15V900H257" stroke="black" stroke-width="30"></path>
<path d="M358 900H565V200H502" stroke="black" stroke-width="30"></path>
<path d="M366 699V596H564.5" stroke="black" stroke-width="15"></path>
<path d="M365 798L365 900" stroke="black" stroke-width="15"></path>
<path d="M15 791L252 791" stroke="black" stroke-width="15"></path>
<path d="M250 695V900" stroke="black" stroke-width="15"></path>
<path d="M267.964 802C318.746 802 355.09 845.5 355.09 893" stroke="black" stroke-dasharray="2 2"></path>
<rect x="261" y="803.5" width="5.96159" height="89" stroke="black" stroke-width="3"></rect>
<path d="M268.964 609C319.746 609 356.09 652.5 356.09 700" stroke="black" stroke-dasharray="2 2"></path>
<rect x="262" y="610.5" width="5.96159" height="89" stroke="black" stroke-width="3"></rect>
<path d="M455.107 710.5C455.107 761.5 411.793 798 364.496 798" stroke="black" stroke-dasharray="2 2"></path>
<rect x="453.607" y="703.5" width="6" height="88.6074" transform="rotate(90 453.607 703.5)" stroke="black" stroke-width="3"></rect>
<path d="M321 -1.08197e-05L321 200L71 200L71 -1.08194e-07L321 -1.08197e-05Z" fill="#A9BCC4"></path>
<path d="M321 -1.08197e-05L321 200L71 200L71 -1.08194e-07L321 -1.08197e-05Z" stroke="black"></path>
</svg></g></svg>